Coordinates
version=1
nRows=13
nColumns=36
inDegrees=yes

Units are S.I. units (second, meters, Newtons, ...)
If the header above contains a line with 'inDegrees', this indicates whether rotational values are in degrees (yes) or radians (no).

endheader
time	pelvis_tilt	pelvis_list	pelvis_rotation	pelvis_tx	pelvis_ty	pelvis_tz	hip_flexion_r	hip_adduction_r	hip_rotation_r	knee_angle_r	knee_angle_r_beta	ankle_angle_r	subtalar_angle_r	mtp_angle_r	hip_flexion_l	hip_adduction_l	hip_rotation_l	knee_angle_l	knee_angle_l_beta	ankle_angle_l	subtalar_angle_l	mtp_angle_l	lumbar_extension	lumbar_bending	lumbar_rotation	arm_flex_r	arm_add_r	arm_rot_r	elbow_flex_r	pro_sup_r	arm_flex_l	arm_add_l	arm_rot_l	elbow_flex_l	pro_sup_l
     21.65000000	      2.23751257	      2.14536107	    266.04650715	     -1.23265600	      1.02768417	     -0.31163246	     25.94591345	    -10.74924534	     17.23779894	     37.68155921	      0.65766728	     -7.92153451	    -30.76964797	     -7.49999987	      5.76293855	     11.47057184	      5.27604343	     10.62335027	      0.18541244	      9.99631492	     -6.24002835	     -7.49999987	     -3.73500074	    -11.99669594	     -3.70182891	      4.51504801	     -2.84253957	    367.46592740	     24.68048159	     78.88432277	     14.40201713	    -17.57906745	     23.93835604	     44.30341391	     91.00296051
     21.66666670	      2.37481072	      2.53955059	    268.24207452	     -1.23059314	      1.02660434	     -0.29467591	     27.17816413	    -10.28914425	     18.62170075	     33.24037189	      0.58015393	     -7.13138011	    -29.81337335	     -7.49999987	      4.07427206	     11.93214491	      7.14188557	      9.12007829	      0.15917539	     10.27915163	     -4.96991605	     -7.49999987	     -3.31561074	    -11.91208718	     -5.42990507	      1.68281828	     -3.05924614	    365.83738503	     24.94787154	     78.33684079	     14.69126545	    -17.70705421	     24.04368080	     46.67421564	     90.27630608
     21.68333330	      2.24283404	      2.98337607	    269.77304505	     -1.22825017	      1.02425637	     -0.27909069	     28.72819616	     -9.70654646	     18.58988303	     29.24857449	      0.51048393	     -7.54994546	    -29.83221615	     -7.49999987	      2.75463014	     12.22448862	      8.32413005	      8.28804986	      0.14465376	     11.04400010	     -3.83130852	     -7.49999987	     -2.92053788	    -11.63366499	     -6.38201785	     -1.26153523	     -2.80227240	    362.20118809	     25.92194512	     80.16562596	     15.00610554	    -17.41680056	     23.39659009	     49.07952336	     90.81173219
     21.70000000	      2.04900709	      3.80521785	    271.00253095	     -1.22983375	      1.02181573	     -0.26407477	     30.33166691	     -9.01507331	     18.47082877	     24.85118232	      0.43373495	     -7.48377895	    -29.20679488	     -7.49999987	      1.94003764	     12.29404376	      9.50629609	      7.65011849	      0.13351976	     11.83473962	     -2.43794404	     -7.49999987	     -1.66230253	    -12.32121950	     -8.50570151	     -7.47260650	      2.01117061	    372.59210275	     26.16040551	     81.31949487	     13.14125217	    -18.17866711	     20.91977699	     55.94312153	     89.74654970
     21.71666670	      2.05710082	      4.48733319	    272.23912020	     -1.23291827	      1.01948194	     -0.25091942	     31.57082301	     -8.60191241	     18.84953588	     20.22091765	      0.35292159	     -5.97902420	    -26.66918243	     -7.49999987	      1.20960859	     12.39992404	     10.79675119	      7.38856599	      0.12895480	     12.87119219	     -0.97602120	     -7.49999987	     -1.58184166	    -12.92904698	     -8.34952240	    -13.20601216	      4.95931497	    396.27938195	     29.76862084	     72.18005938	     15.23067124	    -18.81103366	     24.32797082	     59.67398131	     85.22307253
     21.73333330	      2.31577763	      4.63802661	    273.46499080	     -1.22917755	      1.01801422	     -0.23394889	     31.88424865	     -9.08338632	     20.01648004	     15.89461718	      0.27741340	     -3.09841789	    -22.32378108	     -7.49999987	     -0.14027500	     12.75862115	     12.42238032	      7.25623769	      0.12664524	     14.33219553	     -0.91395899	     -7.49999987	     -2.20026285	    -13.01412676	     -8.87334381	    -14.80590809	      6.11475490	    428.88258653	     38.75702949	     73.87079685	     16.10142515	    -19.21988546	     26.42229351	     62.31126256	     82.31211410
     21.75000000	      2.62281173	      4.43751075	    274.43868055	     -1.22620090	      1.01650112	     -0.21619356	     31.60961388	     -9.67236819	     20.66539500	     11.33371489	      0.19781064	     -0.22143905	    -17.28503997	     -7.49999987	     -2.00254793	     13.03028254	     14.00248357	      6.88530803	      0.12017130	     15.45323608	     -1.23803855	     -7.49999987	     -2.49387631	    -12.97764198	    -10.10513411	    -12.95122813	      8.68757963	    451.87616233	     47.03259580	     60.61119669	     15.53817688	    -19.92660146	     27.05889616	     64.68872778	     78.72024826
     21.76666670	      3.03123198	      4.31473137	    275.10870034	     -1.22709925	      1.01456998	     -0.19727197	     31.14820190	    -10.34396799	     20.64952265	      6.68654343	      0.11670220	      1.74235568	    -12.68153227	     -7.49999987	     -3.67091568	     13.25128738	     15.51564875	      6.70822342	      0.11708059	     16.24973847	     -2.13326036	     -7.49999987	     -2.86481328	    -13.33410833	     -9.44131440	    -10.48555701	      7.87090830	    454.94144460	     51.52166503	     61.48328891	     15.97399441	    -19.44763088	     28.30759782	     63.94952364	     78.05908576
     21.78333330	      3.41477913	      4.13923154	    275.35211079	     -1.23103315	      1.01253361	     -0.18392208	     30.72263792	    -10.50646243	     19.37767152	      2.49395646	      0.04352775	      3.03420532	     -8.26935965	     -7.49999987	     -5.06102921	     13.39828955	     16.56210668	      6.91542923	      0.12069701	     16.81682360	     -2.82183727	     -7.49999987	     -3.52597919	    -13.63198062	     -8.74793541	     -8.61707115	      7.40341712	    455.51003502	     53.31594160	     61.68195333	     16.54431523	    -19.09432843	     28.87643498	     63.34061621	     76.67451334
     21.80000000	      3.61892678	      4.23554219	    275.20857146	     -1.23462457	      1.01017383	     -0.16635300	     31.27543875	     -9.65795241	     17.35821519	      0.49458419	      0.00863212	      4.67998862	     -3.71674993	     -7.49999987	     -6.00310114	     13.46371412	     17.53306869	      7.35865066	      0.12843268	     17.23638209	     -4.76109704	     -7.49999987	     -3.40374727	    -13.91140342	     -8.57367684	     -8.95652039	     10.28035245	    457.05813256	     51.12671479	     61.23075371	     16.50453086	    -18.91389726	     27.98827175	     62.05013196	     76.56756320
     21.81666670	      3.63399602	      4.64150532	    274.86376387	     -1.23836896	      1.00753287	     -0.14852268	     32.36628735	     -8.17288096	     15.06289837	      0.25644470	      0.00447580	      6.15985200	     -0.28623746	     -7.49999987	     -6.40090395	     13.33884341	     17.90128389	      8.08124167	      0.14104427	     17.73192491	     -6.60450484	     -7.49999987	     -3.08242551	    -13.90560989	     -7.97216083	     -6.96579913	      7.63163124	    454.62335062	     50.02181939	     60.71618913	     16.48083187	    -17.86131273	     25.95579202	     58.29086273	     77.53669113
     21.83333330	      3.19287615	      4.68117539	    274.68556196	     -1.24183879	      1.00686950	     -0.13089332	     32.51527737	     -6.24296218	     13.12350486	      0.22576941	      0.00394042	      7.09223980	      2.29131674	     -7.49999987	     -6.99866630	     12.72861612	     17.85365714	      9.07643650	      0.15841370	     18.35061505	     -8.12600725	     -7.49999987	     -3.00584630	    -13.50189816	     -7.68017042	     -7.25484372	      8.42340856	    455.01384604	     49.15349893	     60.60682457	     16.53352037	    -18.05802265	     25.70537580	     56.09514969	     78.66301152
     21.85000000	      2.59250121	      4.74739242	    274.75276110	     -1.24229697	      1.00764763	     -0.10903492	     32.03880130	     -4.32033470	     11.40226666	      0.24783198	      0.00432548	      7.27765586	      3.81322097	     -7.49999987	     -7.47294644	     11.86687584	     17.94749278	     10.36037363	      0.18082263	     18.06618613	     -8.96711420	     -7.49999987	     -3.34816306	    -12.85498281	     -6.31418255	     -5.31863455	      0.69623755	    442.62383304	     44.03768210	     66.70382531	     17.18732203	    -17.19655792	     25.15901536	     51.80483732	     88.50541685
